<svg xmlns="http://www.w3.org/2000/svg" viewBox="0 0 64 64" role="img" aria-label="MTE 481 logo">
  <defs>
    <linearGradient id="bg" x1="0%" x2="100%" y1="0%" y2="100%">
      <stop offset="0%" stop-color="#1a56d8"/>
      <stop offset="55%" stop-color="#4f8cf2"/>
      <stop offset="100%" stop-color="#8cc3ff"/>
    </linearGradient>
  </defs>
  <rect width="64" height="64" rx="18" fill="url(#bg)"/>
  <path d="M18 45V19h8.5c6.5 0 10.5 4.1 10.5 10.2 0 6.1-4 10.1-10.5 10.1H18zm8.5-5.7c3.8 0 6.2-2.4 6.2-5.5 0-3.2-2.4-5.5-6.2-5.5H23.5v11h2.9z" fill="#fff"/>
  <path d="M36 45V19h8.2c5.2 0 8.8 3.2 8.8 8.1 0 4.8-3.6 8.1-8.8 8.1H41v9.8h-5zm5-14.7h2.7c2.5 0 4.2-1.3 4.2-3.6 0-2.3-1.7-3.6-4.2-3.6H41v7.2z" fill="#fff" opacity="0.95"/>
</svg>